<?xml version="1.0" encoding="UTF-8" standalone="no"?><!-- Generator: Gravit.io --><svg xmlns="http://www.w3.org/2000/svg" xmlns:xlink="http://www.w3.org/1999/xlink" style="isolation:isolate" viewBox="0 0 64 64" width="64pt" height="64pt"><defs><clipPath id="_clipPath_YbpQBGLys0cCsqphSp6AUBp5MNoIL3Pd"><rect width="64" height="64"/></clipPath></defs><g clip-path="url(#_clipPath_YbpQBGLys0cCsqphSp6AUBp5MNoIL3Pd)"><g><g><g><g><path d=" M 59.733 23.467 C 59.593 23.467 59.46 23.522 59.324 23.548 C 58.253 11.934 55.467 2.133 55.467 2.133 C 55.467 2.133 47.155 8.678 38.4 12.8 C 29.043 17.203 19.2 19.2 19.2 19.2 L 4.267 19.2 C 1.911 19.2 0 24.93 0 32 C 0 39.07 1.911 44.8 4.267 44.8 L 6.4 44.8 L 6.4 57.6 C 6.4 59.955 8.311 61.867 10.667 61.867 C 13.022 61.867 14.933 59.955 14.933 57.6 L 14.933 44.8 L 19.2 44.8 C 19.2 44.8 29.03 46.788 38.4 51.2 C 47.138 55.313 55.467 61.867 55.467 61.867 C 55.467 61.867 58.261 52.117 59.328 40.452 C 59.465 40.478 59.593 40.533 59.733 40.533 C 62.089 40.533 64 36.715 64 32 C 64 27.285 62.089 23.467 59.733 23.467 Z  M 6.4 23.467 L 10.667 23.467 L 10.667 40.533 L 6.4 40.533 L 6.4 23.467 Z  M 19.2 40.533 L 14.933 40.533 L 14.933 23.467 L 19.2 23.467 L 19.2 40.533 Z  M 53.333 55.467 C 53.333 55.467 45.892 50.146 38.4 46.933 C 30.959 43.746 23.467 42.667 23.467 42.667 L 23.467 21.333 C 23.467 21.333 30.865 20.297 38.4 17.067 C 45.798 13.897 53.333 8.533 53.333 8.533 C 53.346 8.533 55.531 21.355 55.462 31.962 C 55.39 42.688 53.333 55.467 53.333 55.467 Z " fill="rgb(255,255,255)"/></g></g></g></g><rect x="-8.931" y="27.577" width="81.878" height="8.654" transform="matrix(-0.707,0.707,-0.707,-0.707,77.2,31.831)" fill="rgb(255,255,255)"/><rect x="-8.827" y="27.429" width="81.738" height="8.654" transform="matrix(0.707,0.707,-0.707,0.707,31.839,-13.356)" fill="rgb(255,255,255)"/></g></svg>