<?xml version="1.0" encoding="UTF-8" standalone="no"?>
<svg
   aria-hidden="true"
   focusable="false"
   data-prefix="fas"
   data-icon="user-times"
   class="svg-inline--fa fa-user-times fa-w-20"
   role="img"
   viewBox="0 0 640 512"
   version="1.1"
   id="svg11"
   sodipodi:docname="calendar-times-solid.svg"
   inkscape:version="1.2.1 (9c6d41e410, 2022-07-14, custom)"
   xmlns:inkscape="http://www.inkscape.org/namespaces/inkscape"
   xmlns:sodipodi="http://sodipodi.sourceforge.net/DTD/sodipodi-0.dtd"
   xmlns="http://www.w3.org/2000/svg"
   xmlns:svg="http://www.w3.org/2000/svg">
  <defs
     id="defs15" />
  <sodipodi:namedview
     id="namedview13"
     pagecolor="#505050"
     bordercolor="#eeeeee"
     borderopacity="1"
     inkscape:showpageshadow="0"
     inkscape:pageopacity="0"
     inkscape:pagecheckerboard="0"
     inkscape:deskcolor="#505050"
     showgrid="false"
     inkscape:zoom="0.50292969"
     inkscape:cx="-68.598058"
     inkscape:cy="226.67184"
     inkscape:window-width="1366"
     inkscape:window-height="695"
     inkscape:window-x="0"
     inkscape:window-y="0"
     inkscape:window-maximized="1"
     inkscape:current-layer="svg11" />
  <path
     id="path12411"
     style="fill:#ff0000"
     d="M 487 144.07422 C 482.875 144.07422 478.74961 145.65078 475.59961 148.80078 L 452.80078 171.59961 C 446.50079 177.8996 446.50079 188.1004 452.80078 194.40039 L 498.40039 240 L 452.80078 285.59961 C 446.50079 291.8996 446.50079 302.1004 452.80078 308.40039 L 475.59961 331.19922 C 481.8996 337.49921 492.1004 337.49921 498.40039 331.19922 L 544 285.59961 L 589.59961 331.19922 C 595.8996 337.49921 606.1004 337.49921 612.40039 331.19922 L 635.19922 308.40039 C 641.49921 302.1004 641.49921 291.8996 635.19922 285.59961 L 589.59961 240 L 635.19922 194.40039 C 641.49921 188.1004 641.49921 177.8996 635.19922 171.59961 L 612.40039 148.80078 C 606.1004 142.50079 595.8996 142.50079 589.59961 148.80078 L 544 194.40039 L 498.40039 148.80078 C 495.25039 145.65078 491.125 144.07422 487 144.07422 z " />
  <path
     fill="currentColor"
     d="m 21.061102,437.67753 c 0,23.66556 19.200353,42.86591 42.865903,42.86591 H 378.27693 c 23.66555,0 42.8659,-19.20035 42.8659,-42.86591 V 194.77076 H 21.061102 Z M 306.83376,262.64178 c 0,-5.89407 4.82241,-10.71648 10.71648,-10.71648 h 35.72158 c 5.89406,0 10.71647,4.82241 10.71647,10.71648 v 35.72157 c 0,5.89407 -4.82241,10.71648 -10.71647,10.71648 h -35.72158 c -5.89407,0 -10.71648,-4.82241 -10.71648,-10.71648 z m 0,114.30907 c 0,-5.89407 4.82241,-10.71648 10.71648,-10.71648 h 35.72158 c 5.89406,0 10.71647,4.82241 10.71647,10.71648 v 35.72157 c 0,5.89407 -4.82241,10.71648 -10.71647,10.71648 h -35.72158 c -5.89407,0 -10.71648,-4.82241 -10.71648,-10.71648 z M 192.52471,262.64178 c 0,-5.89407 4.82241,-10.71648 10.71648,-10.71648 h 35.72157 c 5.89407,0 10.71648,4.82241 10.71648,10.71648 v 35.72157 c 0,5.89407 -4.82241,10.71648 -10.71648,10.71648 h -35.72157 c -5.89407,0 -10.71648,-4.82241 -10.71648,-10.71648 z m 0,114.30907 c 0,-5.89407 4.82241,-10.71648 10.71648,-10.71648 h 35.72157 c 5.89407,0 10.71648,4.82241 10.71648,10.71648 v 35.72157 c 0,5.89407 -4.82241,10.71648 -10.71648,10.71648 h -35.72157 c -5.89407,0 -10.71648,-4.82241 -10.71648,-10.71648 z M 78.215639,262.64178 c 0,-5.89407 4.822414,-10.71648 10.716475,-10.71648 h 35.721576 c 5.89407,0 10.71648,4.82241 10.71648,10.71648 v 35.72157 c 0,5.89407 -4.82241,10.71648 -10.71648,10.71648 H 88.932114 c -5.894061,0 -10.716475,-4.82241 -10.716475,-10.71648 z m 0,114.30907 c 0,-5.89407 4.822414,-10.71648 10.716475,-10.71648 h 35.721576 c 5.89407,0 10.71648,4.82241 10.71648,10.71648 v 35.72157 c 0,5.89407 -4.82241,10.71648 -10.71648,10.71648 H 88.932114 c -5.894061,0 -10.716475,-4.82241 -10.716475,-10.71648 z M 378.27693,80.461694 h -42.86591 v -42.8659 c 0,-7.85875 -6.42988,-14.288635 -14.28862,-14.288635 h -28.57727 c -7.85876,0 -14.28862,6.429885 -14.28862,14.288635 v 42.8659 H 163.94744 v -42.8659 c 0,-7.85875 -6.42989,-14.288635 -14.28864,-14.288635 h -28.57726 c -7.85875,0 -14.28863,6.429885 -14.28863,14.288635 v 42.8659 H 63.927005 c -23.66555,0 -42.865903,19.200359 -42.865903,42.865906 v 42.86589 H 421.14283 V 123.3276 c 0,-23.665547 -19.20035,-42.865906 -42.8659,-42.865906 z"
     id="path2"
     style="fill:#ff0000;stroke-width:0.893039" />
</svg>
