<?xml version="1.0" encoding="UTF-8" standalone="no"?>
<svg
   aria-hidden="true"
   focusable="false"
   data-prefix="fas"
   data-icon="user-plus"
   class="svg-inline--fa fa-user-plus fa-w-20"
   role="img"
   viewBox="0 0 640 512"
   version="1.1"
   id="svg16467"
   sodipodi:docname="calendar-plus-black-solid.svg"
   inkscape:version="1.2.1 (9c6d41e410, 2022-07-14, custom)"
   xmlns:inkscape="http://www.inkscape.org/namespaces/inkscape"
   xmlns:sodipodi="http://sodipodi.sourceforge.net/DTD/sodipodi-0.dtd"
   xmlns="http://www.w3.org/2000/svg"
   xmlns:svg="http://www.w3.org/2000/svg">
  <defs
     id="defs16471" />
  <sodipodi:namedview
     id="namedview16469"
     pagecolor="#505050"
     bordercolor="#eeeeee"
     borderopacity="1"
     inkscape:showpageshadow="0"
     inkscape:pageopacity="0"
     inkscape:pagecheckerboard="0"
     inkscape:deskcolor="#505050"
     showgrid="false"
     inkscape:zoom="0.50292969"
     inkscape:cx="569.66213"
     inkscape:cy="347.96116"
     inkscape:window-width="1366"
     inkscape:window-height="695"
     inkscape:window-x="0"
     inkscape:window-y="0"
     inkscape:window-maximized="1"
     inkscape:current-layer="svg16467" />
  <path
     id="path16477"
     d="M 512 128 C 503.20001 128 496 135.20001 496 144 L 496 208 L 432 208 C 423.20001 208 416 215.20001 416 224 L 416 256 C 416 264.79999 423.20001 272 432 272 L 496 272 L 496 336 C 496 344.79999 503.20001 352 512 352 L 544 352 C 552.79999 352 560 344.79999 560 336 L 560 272 L 624 272 C 632.79999 272 640 264.79999 640 256 L 640 224 C 640 215.20001 632.79999 208 624 208 L 560 208 L 560 144 C 560 135.20001 552.79999 128 544 128 L 512 128 z "
     style="fill:#ffffff" />
  <path
     fill="currentColor"
     d="m 5.3709954,444.5289 c 0,23.67495 19.2079796,42.88293 42.8829336,42.88293 H 362.72877 c 23.67495,0 42.88294,-19.20798 42.88294,-42.88293 V 201.52561 H 5.3709954 Z M 291.25721,269.42359 c 0,-5.89641 4.82433,-10.72074 10.72074,-10.72074 h 35.73578 c 5.8964,0 10.72072,4.82433 10.72072,10.72074 v 35.73576 c 0,5.89641 -4.82432,10.72074 -10.72072,10.72074 h -35.73578 c -5.89641,0 -10.72074,-4.82433 -10.72074,-10.72074 z m 0,114.35448 c 0,-5.89639 4.82433,-10.72074 10.72074,-10.72074 h 35.73578 c 5.8964,0 10.72072,4.82435 10.72072,10.72074 v 35.73578 c 0,5.89641 -4.82432,10.72074 -10.72072,10.72074 h -35.73578 c -5.89641,0 -10.72074,-4.82433 -10.72074,-10.72074 z M 176.90273,269.42359 c 0,-5.89641 4.82434,-10.72074 10.72074,-10.72074 h 35.73576 c 5.89641,0 10.72075,4.82433 10.72075,10.72074 v 35.73576 c 0,5.89641 -4.82434,10.72074 -10.72075,10.72074 h -35.73576 c -5.8964,0 -10.72074,-4.82433 -10.72074,-10.72074 z m 0,114.35448 c 0,-5.89639 4.82434,-10.72074 10.72074,-10.72074 h 35.73576 c 5.89641,0 10.72075,4.82435 10.72075,10.72074 v 35.73578 c 0,5.89641 -4.82434,10.72074 -10.72075,10.72074 h -35.73576 c -5.8964,0 -10.72074,-4.82433 -10.72074,-10.72074 z M 62.548236,269.42359 c 0,-5.89641 4.824338,-10.72074 10.720734,-10.72074 h 35.73578 c 5.89639,0 10.72073,4.82433 10.72073,10.72074 v 35.73576 c 0,5.89641 -4.82434,10.72074 -10.72073,10.72074 H 73.26897 c -5.896396,0 -10.720734,-4.82433 -10.720734,-10.72074 z m 0,114.35448 c 0,-5.89639 4.824338,-10.72074 10.720734,-10.72074 h 35.73578 c 5.89639,0 10.72073,4.82435 10.72073,10.72074 v 35.73578 c 0,5.89641 -4.82434,10.72074 -10.72073,10.72074 H 73.26897 c -5.896396,0 -10.720734,-4.82433 -10.720734,-10.72074 z M 362.72877,87.17112 H 319.84583 V 44.28819 c 0,-7.861879 -6.43244,-14.294316 -14.2943,-14.294316 h -28.58862 c -7.86187,0 -14.29431,6.432437 -14.29431,14.294316 V 87.17112 H 148.31411 V 44.28819 c 0,-7.861879 -6.43244,-14.294316 -14.29432,-14.294316 h -28.58862 c -7.86188,0 -14.29431,6.432437 -14.29431,14.294316 V 87.17112 H 48.253929 c -23.674954,0 -42.8829336,19.20798 -42.8829336,42.88293 v 42.88294 H 405.61171 v -42.88294 c 0,-23.67495 -19.20799,-42.88293 -42.88294,-42.88293 z"
     id="path2"
     style="fill:#ffffff;stroke-width:0.893394" />
</svg>
