<?xml version="1.0" encoding="UTF-8" standalone="no"?><!-- Generator: Gravit.io --><svg xmlns="http://www.w3.org/2000/svg" xmlns:xlink="http://www.w3.org/1999/xlink" style="isolation:isolate" viewBox="0 0 64 64" width="64pt" height="64pt"><defs><clipPath id="_clipPath_cyGGZgp3hnn2CWppbiiLAeVT1cwuUVrY"><rect width="64" height="64"/></clipPath></defs><g clip-path="url(#_clipPath_cyGGZgp3hnn2CWppbiiLAeVT1cwuUVrY)"><rect x="55" y="0" width="9.005" height="64" transform="matrix(1,0,0,1,0,0)" fill="rgb(0,0,0)"/><rect x="0" y="0.01" width="9" height="63.99" transform="matrix(1,0,0,1,0,0)" fill="rgb(0,0,0)"/><rect x="31.03" y="35.977" width="3.955" height="51.996" transform="matrix(0.002,1,-1,0.002,94.921,28.854)" fill="rgb(0,0,0)"/><rect x="28.023" y="-22.979" width="7.96" height="53.998" transform="matrix(0.002,1,-1,0.002,35.964,-27.99)" fill="rgb(0,0,0)"/><rect x="28.023" y="32.972" width="7.96" height="53.998" transform="matrix(0.002,1,-1,0.002,91.915,27.858)" fill="rgb(0,0,0)"/><rect x="16.02" y="15.013" width="5.955" height="5.996" transform="matrix(0.002,1,-1,0.002,36.973,-1.019)" fill="rgb(0,0,0)"/><rect x="35.02" y="8.021" width="5.955" height="19.987" transform="matrix(0.001,1,-1,0.002,55.961,-20.028)" fill="rgb(0,0,0)"/><rect x="16.026" y="28.998" width="5.955" height="5.996" transform="matrix(0.002,1,-1,0.002,50.965,12.934)" fill="rgb(0,0,0)"/><rect x="35.025" y="22.007" width="5.955" height="19.987" transform="matrix(0.001,1,-1,0.002,69.951,-6.082)" fill="rgb(0,0,0)"/><rect x="16.02" y="43.001" width="5.955" height="5.996" transform="matrix(0.002,1,-1,0.002,64.961,26.917)" fill="rgb(0,0,0)"/><rect x="35.02" y="36.009" width="5.955" height="19.987" transform="matrix(0.001,1,-1,0.002,83.949,7.89)" fill="rgb(0,0,0)"/></g></svg>