<?xml version="1.0" encoding="UTF-8" standalone="no"?><!-- Generator: Gravit.io --><svg xmlns="http://www.w3.org/2000/svg" xmlns:xlink="http://www.w3.org/1999/xlink" style="isolation:isolate" viewBox="0 0 64 64" width="64pt" height="64pt"><defs><clipPath id="_clipPath_WS7kYiRgmGe3L1G1iJ5JDBx7vSHF2BJJ"><rect width="64" height="64"/></clipPath></defs><g clip-path="url(#_clipPath_WS7kYiRgmGe3L1G1iJ5JDBx7vSHF2BJJ)"><path d=" M 44.701 41.882 L 48.257 38.327 C 48.812 37.771 49.779 38.16 49.779 38.96 L 49.779 55.116 C 49.779 58.06 47.39 60.449 44.445 60.449 L 5.333 60.449 C 2.389 60.449 0 58.06 0 55.116 L 0 16.004 C 0 13.059 2.389 10.67 5.333 10.67 L 35.723 10.67 C 36.512 10.67 36.912 11.626 36.356 12.193 L 32.801 15.748 C 32.634 15.915 32.412 16.004 32.167 16.004 L 5.333 16.004 L 5.333 55.116 L 44.445 55.116 L 44.445 42.504 C 44.445 42.271 44.534 42.049 44.701 41.882 Z  M 62.101 19.459 L 32.923 48.638 L 22.878 49.749 C 19.967 50.071 17.489 47.616 17.811 44.682 L 18.923 34.638 L 48.101 5.459 C 50.646 2.915 54.757 2.915 57.29 5.459 L 62.09 10.259 C 64.635 12.804 64.635 16.926 62.101 19.459 L 62.101 19.459 Z  M 51.123 22.893 L 44.668 16.437 L 24.023 37.093 L 23.212 44.349 L 30.467 43.538 L 51.123 22.893 Z  M 58.323 14.037 L 53.523 9.237 C 53.068 8.781 52.323 8.781 51.879 9.237 L 48.445 12.67 L 54.901 19.126 L 58.335 15.693 C 58.779 15.226 58.779 14.493 58.323 14.037 L 58.323 14.037 Z " fill="rgb(255,255,255)"/></g></svg>