<svg width="39" height="22" viewBox="0 0 39 22" fill="none" xmlns="http://www.w3.org/2000/svg">
    <path d="M20.1969 20.157C17.0252 21.1757 13.7203 21.3857 10.2823 20.7871C6.84417 20.1885 4.26193 18.9534 2.53553 17.0819C0.809136 15.2104 0.453184 13.2603 1.46768 11.2317C2.48217 9.20298 4.57527 7.67929 7.74697 6.66061L24.6729 1.22438C26.9602 0.489755 29.3406 0.33778 31.8141 0.768453C34.2876 1.19913 36.146 2.08912 37.3891 3.43843C38.6322 4.78774 38.8904 6.19214 38.1636 7.65162C37.4368 9.11109 35.9279 10.2078 33.6368 10.9418L17.6259 16.0842C16.223 16.5347 14.768 16.6288 13.2609 16.3664C11.7538 16.104 10.6184 15.5589 9.85484 14.7311C9.09124 13.9034 8.9318 13.0448 9.37651 12.1555C9.82122 11.2663 10.745 10.5963 12.1479 10.1458L29.0738 4.70952L31.0658 6.86895L14.1399 12.3052C13.7434 12.4325 13.4866 12.6144 13.3694 12.8508C13.2522 13.0871 13.3006 13.3221 13.5145 13.5557C13.7284 13.7893 14.0369 13.9412 14.4401 14.0114C14.8432 14.0816 15.2412 14.0527 15.6339 13.9247L31.6449 8.78236C32.9091 8.35298 33.7471 7.74001 34.1587 6.94345C34.5704 6.14689 34.4273 5.37035 33.7294 4.61383C33.0316 3.85732 32.0001 3.36051 30.6349 3.12343C29.2698 2.88634 27.9464 2.97313 26.6649 3.3838L9.73896 8.82004C7.55707 9.49749 6.12662 10.5284 5.44762 11.9128C4.76862 13.2973 5.01781 14.6285 6.19519 15.9065C7.35718 17.1662 9.09999 17.9944 11.4236 18.3911C13.7472 18.7878 16.0077 18.6567 18.2049 17.9976L36.0458 12.2675L38.0378 14.4269L20.1969 20.157Z" fill="#034652"/>
</svg>

