<svg xmlns="http://www.w3.org/2000/svg" width="37.661" height="50.215" viewBox="0 0 37.661 50.215">
  <path id="Icon_awesome-file-pdf" data-name="Icon awesome-file-pdf" d="M17.84,25.117c-.49-1.569-.481-4.6-.2-4.6C18.468,20.518,18.389,24.137,17.84,25.117Zm-.167,4.629A45.255,45.255,0,0,1,14.888,35.9a36.114,36.114,0,0,1,6.169-2.148A12.7,12.7,0,0,1,17.673,29.747ZM8.444,41.987c0,.078,1.295-.53,3.423-3.943C11.21,38.662,9.013,40.447,8.444,41.987ZM24.323,15.692H37.661V47.861a2.348,2.348,0,0,1-2.354,2.354H2.354A2.348,2.348,0,0,1,0,47.861V2.354A2.348,2.348,0,0,1,2.354,0H21.969V13.338A2.361,2.361,0,0,0,24.323,15.692Zm-.785,16.85a9.844,9.844,0,0,1-4.188-5.277c.441-1.814,1.138-4.57.608-6.3-.461-2.883-4.158-2.6-4.688-.667-.49,1.795-.039,4.325.794,7.552a92.1,92.1,0,0,1-4,8.415c-.01,0-.01.01-.02.01C9.386,37.642,4.825,40.643,6.7,42.948a3.048,3.048,0,0,0,2.109.981c1.756,0,3.5-1.765,5.992-6.061a55.906,55.906,0,0,1,7.748-2.275A14.863,14.863,0,0,0,28.825,37.5a2.539,2.539,0,0,0,1.932-4.257c-1.363-1.334-5.326-.951-7.218-.706ZM36.975,10.3,27.363.687A2.352,2.352,0,0,0,25.7,0h-.588V12.554H37.661v-.6A2.346,2.346,0,0,0,36.975,10.3ZM29.707,35.337c.4-.265-.245-1.167-4.2-.883C29.148,36,29.707,35.337,29.707,35.337Z" fill="#fff"/>
</svg>
