<?xml version="1.0" encoding="UTF-8" standalone="no"?><!-- Generator: Gravit.io --><svg xmlns="http://www.w3.org/2000/svg" xmlns:xlink="http://www.w3.org/1999/xlink" style="isolation:isolate" viewBox="0 0 64 64" width="64pt" height="64pt"><defs><clipPath id="_clipPath_cC5WxOpqviJZh8te3oZHGctT03tJWYMJ"><rect width="64" height="64"/></clipPath></defs><g clip-path="url(#_clipPath_cC5WxOpqviJZh8te3oZHGctT03tJWYMJ)"><g><g><path d=" M 64 50.325 L 64 62.527 L 0 62.527 L 0 50.325 L 51.94 50.325 C 51.964 47.744 51.535 44.826 49.901 42.672 C 48.461 40.773 46.243 39.707 43.304 39.484 C 43.064 39.938 42.601 40.258 42.051 40.258 L 39.59 40.258 C 38.797 40.258 38.154 39.615 38.154 38.821 C 38.154 38.027 38.797 37.384 39.59 37.384 L 42.051 37.384 C 42.694 37.384 43.217 37.813 43.401 38.395 C 46.658 38.642 49.138 39.853 50.775 42.012 C 52.593 44.411 53.071 47.563 53.048 50.323 L 64 50.323 L 64 50.325 Z  M 32 28.177 C 39.374 28.177 45.352 22.2 45.352 14.825 C 45.352 7.45 39.374 1.473 32 1.473 C 24.625 1.473 18.648 7.45 18.648 14.825 C 18.648 22.2 24.625 28.177 32 28.177 Z  M 48.353 43.962 C 47.398 42.701 45.988 41.937 44.061 41.64 C 43.489 42.072 42.789 42.317 42.051 42.317 L 39.59 42.317 C 37.728 42.317 36.212 40.801 36.212 38.938 C 36.212 37.075 37.727 35.559 39.59 35.559 L 42.051 35.559 C 43.028 35.559 43.925 35.981 44.548 36.679 C 47.465 37.077 49.819 38.216 51.572 40.07 C 51.567 40.001 51.569 39.93 51.563 39.861 L 50.948 36.804 C 49.449 31.985 45.543 28.223 40.638 26.925 C 38.37 29.042 35.338 30.347 32 30.347 C 28.661 30.347 25.628 29.041 23.362 26.925 C 17.052 28.593 12.379 34.335 12.379 41.16 L 12.379 48.496 L 49.913 48.496 C 49.716 46.61 49.188 45.062 48.353 43.962 Z " fill="rgb(255,255,255)"/></g></g></g></svg>