<?xml version="1.0" encoding="UTF-8" standalone="no"?><!-- Generator: Gravit.io --><svg xmlns="http://www.w3.org/2000/svg" xmlns:xlink="http://www.w3.org/1999/xlink" style="isolation:isolate" viewBox="0 0 52 52" width="52pt" height="52pt"><defs><clipPath id="_clipPath_uWc96IDgaPTQu3ylIE2DF4RP1f6kR5v0"><rect width="52" height="52"/></clipPath></defs><g clip-path="url(#_clipPath_uWc96IDgaPTQu3ylIE2DF4RP1f6kR5v0)"><path d=" M 46.429 0 L 5.571 0 C 2.496 0 0 2.496 0 5.571 L 0 46.429 C 0 49.504 2.496 52 5.571 52 L 46.429 52 C 49.504 52 52 49.504 52 46.429 L 52 5.571 C 52 2.496 49.504 0 46.429 0 Z  M 42.714 29.25 C 42.714 30.016 42.088 30.643 41.321 30.643 L 30.643 30.643 L 30.643 41.321 C 30.643 42.088 30.016 42.714 29.25 42.714 L 22.75 42.714 C 21.984 42.714 21.357 42.088 21.357 41.321 L 21.357 30.643 L 10.679 30.643 C 9.912 30.643 9.286 30.016 9.286 29.25 L 9.286 22.75 C 9.286 21.984 9.912 21.357 10.679 21.357 L 21.357 21.357 L 21.357 10.679 C 21.357 9.912 21.984 9.286 22.75 9.286 L 29.25 9.286 C 30.016 9.286 30.643 9.912 30.643 10.679 L 30.643 21.357 L 41.321 21.357 C 42.088 21.357 42.714 21.984 42.714 22.75 L 42.714 29.25 Z " fill="rgb(0,0,0)"/></g></svg>