<?xml version="1.0" encoding="UTF-8" standalone="no"?><!-- Generator: Gravit.io --><svg xmlns="http://www.w3.org/2000/svg" xmlns:xlink="http://www.w3.org/1999/xlink" style="isolation:isolate" viewBox="0 0 32 32" width="32pt" height="32pt"><defs><clipPath id="_clipPath_XVs4QVIgTdkBKlhL0vkHTRMGZ12Lgp9I"><rect width="32" height="32"/></clipPath></defs><g clip-path="url(#_clipPath_XVs4QVIgTdkBKlhL0vkHTRMGZ12Lgp9I)"><g><path d=" M 28.927 2.625 L 25.812 2.625 L 25.812 1.287 C 25.812 0.936 25.616 0.614 25.304 0.454 C 24.992 0.293 24.616 0.32 24.33 0.523 C 23.761 0.929 22.777 1.28 21.4 1.571 L 21.4 0.937 C 21.4 0.553 21.166 0.208 20.809 0.066 C 20.451 -0.076 20.044 0.015 19.781 0.294 C 18.993 1.128 17.141 1.743 14.274 2.121 C 11.641 2.468 8.082 2.63 3.073 2.63 C 2.555 2.63 2.136 3.049 2.136 3.567 L 2.136 31.062 C 2.136 31.58 2.555 32 3.073 32 L 28.927 32 C 29.445 32 29.864 31.58 29.864 31.062 L 29.864 3.562 C 29.864 3.044 29.445 2.625 28.927 2.625 L 28.927 2.625 Z  M 19.525 28.265 C 18.627 29.024 16.717 29.549 13.834 29.829 C 11.019 30.102 7.623 30.123 4.011 30.125 L 4.011 4.502 C 12.208 4.466 16.946 3.938 19.525 2.71 L 19.525 28.265 Z  M 23.937 28.506 C 23.31 28.861 22.346 29.159 21.051 29.4 C 21.092 29.358 21.131 29.316 21.168 29.272 C 21.318 29.102 21.4 28.883 21.4 28.656 L 21.4 3.484 C 22.397 3.29 23.24 3.064 23.937 2.803 L 23.937 28.506 Z  M 27.989 30.125 L 24.877 30.125 C 25.092 30.004 25.284 29.876 25.454 29.742 C 25.68 29.564 25.812 29.292 25.812 29.005 L 25.812 4.5 L 27.989 4.5 L 27.989 30.125 Z " fill="rgb(255,255,255)"/><path d=" M 12.894 7.977 C 12.937 7.977 12.98 7.974 13.024 7.967 C 14.961 7.699 16.582 7.288 17.976 6.712 C 18.455 6.514 18.682 5.966 18.485 5.487 C 18.287 5.008 17.739 4.781 17.26 4.979 C 16.014 5.494 14.544 5.864 12.766 6.11 C 12.253 6.181 11.895 6.655 11.967 7.168 C 12.031 7.637 12.433 7.977 12.894 7.977 L 12.894 7.977 Z " fill="rgb(255,255,255)"/><path d=" M 12.881 11.901 C 12.923 11.901 12.967 11.898 13.01 11.892 C 14.96 11.623 16.59 11.209 17.991 10.628 C 18.469 10.43 18.696 9.881 18.498 9.403 C 18.3 8.925 17.751 8.698 17.273 8.896 C 16.021 9.415 14.543 9.788 12.754 10.035 C 12.241 10.105 11.882 10.579 11.953 11.092 C 12.018 11.561 12.42 11.901 12.881 11.901 Z " fill="rgb(255,255,255)"/><path d=" M 17.26 12.824 C 16.011 13.34 14.538 13.711 12.755 13.957 C 12.242 14.028 11.884 14.501 11.955 15.014 C 12.02 15.483 12.421 15.823 12.882 15.823 C 12.925 15.823 12.968 15.82 13.012 15.814 C 14.955 15.546 16.579 15.134 17.976 14.557 C 18.455 14.359 18.682 13.811 18.485 13.332 C 18.287 12.854 17.739 12.626 17.26 12.824 L 17.26 12.824 Z " fill="rgb(255,255,255)"/><path d=" M 5.954 20.142 L 5.96 20.142 C 10.189 20.113 14.573 19.891 17.991 18.473 C 18.469 18.275 18.696 17.727 18.498 17.248 C 18.3 16.77 17.751 16.543 17.273 16.741 C 14.152 18.035 9.985 18.239 5.947 18.267 C 5.429 18.27 5.012 18.693 5.016 19.211 C 5.02 19.727 5.439 20.142 5.954 20.142 Z " fill="rgb(255,255,255)"/><path d=" M 5.953 24.065 L 5.96 24.065 C 10.143 24.036 14.482 23.819 17.888 22.438 C 18.367 22.244 18.599 21.697 18.404 21.217 C 18.209 20.738 17.663 20.506 17.183 20.701 C 14.07 21.963 9.943 22.162 5.947 22.19 C 5.429 22.193 5.012 22.616 5.016 23.134 C 5.02 23.649 5.439 24.065 5.953 24.065 L 5.953 24.065 Z " fill="rgb(255,255,255)"/><path d=" M 17.273 24.587 C 14.153 25.881 9.986 26.084 5.947 26.112 C 5.429 26.116 5.013 26.538 5.016 27.056 C 5.02 27.572 5.439 27.987 5.954 27.987 L 5.96 27.987 C 10.189 27.958 14.573 27.736 17.991 26.319 C 18.469 26.12 18.696 25.572 18.498 25.093 C 18.3 24.615 17.751 24.388 17.273 24.587 Z " fill="rgb(255,255,255)"/><path d=" M 5.954 16.219 C 6.471 16.219 6.891 15.8 6.891 15.282 L 6.891 10.979 L 9.507 15.576 C 9.718 15.946 10.151 16.128 10.562 16.019 C 10.973 15.91 11.26 15.538 11.26 15.113 L 11.26 7.26 C 11.26 6.743 10.84 6.323 10.322 6.323 C 9.804 6.323 9.385 6.743 9.385 7.26 L 9.385 11.57 L 6.769 6.973 C 6.558 6.603 6.125 6.421 5.714 6.53 C 5.303 6.639 5.016 7.011 5.016 7.436 L 5.016 15.282 C 5.016 15.8 5.436 16.219 5.954 16.219 Z " fill="rgb(255,255,255)"/></g></g></svg>