<svg version="1.2" xmlns="http://www.w3.org/2000/svg" viewBox="0 0 508 508" width="508" height="508">
	<title>exam-result-svgrepo-com-svg</title>
	<style>
		.s0 { fill: #0a868b } 
		.s1 { fill: #e6e9ee } 
		.s2 { fill: #dedc29 } 
		.s3 { fill: #000000 } 
	</style>
	<path id="Layer" class="s0" d="m139.2 86h229.2c9.2 0 16.4 7.6 16.4 16.4v250.4h-52.4c-9.2 0-16.4 7.2-16.4 16.4v52.4h-176.8c-9.2 0-16.4-7.6-16.4-16.4v-302.8c0-8.8 7.2-16 16.4-16.4z"/>
	<path id="Layer" class="s1" d="m316.4 421.6v-52.4c0-9.2 7.2-16.4 16.4-16.4h52l-68.8 68.8z"/>
	<path id="Layer" class="s2" d="m320.4 244.4c-16.8 0.4-34 2-51.2 5.2q17.4 2.4 34.8 6c-28.4 18-58.4 34.4-90.4 46.8-0.4-34.4 13.6-71.6 38.4-102.8 0.8 12.4 2 24.4 3.6 36.4 2.8-18 7.2-36 12.4-54q15-14.4 32.4-26.4c-4.4 11.6-8.4 22.8-12 34.4 10-16 21.6-31.6 34-46.8 10.8-5.2 22-9.6 33.2-12.8-6.4 11.6-12 23.6-17.2 35.6 11.2-13.6 23.2-27.2 36.4-40 25.2-4.4 50-3.2 72 3.6-14.4 18-30 34.4-46.4 50q-24.6 1.8-49.2 7.2c12.4 1.2 24.8 2.8 36.4 4.8-7.6 6.8-15.2 13.2-22.8 19.6-16.4 3.2-33.2 7.2-49.6 12.4 11.2-0.4 22.4 0 33.2 0.8-2.8 2-5.6 4.4-8.4 6.4-6.4 4.4-12.8 8.8-19.6 13.6z"/>
	<path id="Layer" class="s3" d="m447.2 129.2c0 0-6.4 2-17.2 6.4-10.8 4.4-25.6 11.2-43.2 20-17.6 8.8-37.2 20.4-56.8 34.4-10 7.2-20 14.8-29.6 22.8-9.6 8-19.2 16.4-28.4 25.6-9.2 9.2-18 18.4-26.4 28-8 9.6-16 19.6-23.2 29.2-14 19.2-26 38.4-35.2 55.2-2-2.4-2.4-5.2-1.2-8 8-16.4 18.4-34 30.8-51.6 7.2-10 14.8-20.4 23.2-30 8-9.6 17.2-19.2 26.4-28.4 9.6-9.2 19.2-18 29.2-26 10-8 20.4-15.6 30.4-22.4 20.4-13.6 40.8-24.8 58.8-32.8 18-8.4 33.6-13.6 44.8-17.2 10.8-3.6 17.6-5.2 17.6-5.2z"/>
	<g id="Layer">
	</g>
	<g id="Layer">
	</g>
	<g id="Layer">
	</g>
	<g id="Layer">
	</g>
	<g id="Layer">
	</g>
	<g id="Layer">
	</g>
	<g id="Layer">
	</g>
	<g id="Layer">
	</g>
	<g id="Layer">
	</g>
	<g id="Layer">
	</g>
	<g id="Layer">
	</g>
	<g id="Layer">
	</g>
	<g id="Layer">
	</g>
	<g id="Layer">
	</g>
	<g id="Layer">
	</g>
</svg>