<?xml version="1.0" standalone="no"?>
<!DOCTYPE svg PUBLIC "-//W3C//DTD SVG 20010904//EN"
 "http://www.w3.org/TR/2001/REC-SVG-20010904/DTD/svg10.dtd">
<svg version="1.0" xmlns="http://www.w3.org/2000/svg"
 width="512.000000pt" height="512.000000pt" viewBox="0 0 512.000000 512.000000"
 preserveAspectRatio="xMidYMid meet">

<g transform="translate(0.000000,512.000000) scale(0.100000,-0.100000)"
fill="#000000" stroke="none">
<path d="M2490 4912 c-19 -9 -43 -33 -55 -52 -20 -35 -20 -49 -25 -1538 l-5
-1502 -340 341 c-187 187 -353 347 -369 355 -123 66 -262 -69 -198 -192 25
-48 953 -975 999 -998 37 -19 80 -20 120 -5 43 16 979 954 1004 1007 34 70 13
142 -54 182 -38 24 -107 26 -145 6 -15 -8 -180 -168 -367 -355 l-340 -341 -5
1502 c-5 1489 -5 1503 -25 1538 -24 41 -76 70 -125 70 -19 0 -51 -8 -70 -18z"/>
<path d="M81 2622 c-19 -9 -44 -30 -55 -45 -21 -28 -21 -38 -24 -755 -4 -777
-1 -830 45 -972 98 -303 332 -529 648 -627 l90 -28 1775 0 1775 0 90 28 c191
59 356 167 474 309 75 89 162 261 193 378 22 84 22 97 25 838 3 684 2 756 -13
787 -47 99 -183 111 -248 22 -21 -28 -21 -40 -26 -775 -5 -666 -8 -753 -23
-807 -55 -190 -181 -343 -352 -425 -153 -74 -42 -70 -1895 -70 -1853 0 -1742
-4 -1895 70 -171 82 -297 235 -352 425 -15 54 -18 141 -23 815 -5 706 -6 758
-23 783 -41 63 -120 83 -186 49z"/>
</g>
</svg>
