<svg width="26" height="28" viewBox="0 0 26 28" fill="none" xmlns="http://www.w3.org/2000/svg">
<path d="M2.6875 1.8125C2.19022 1.8125 1.71331 2.00346 1.36167 2.34337C1.01004 2.68328 0.8125 3.1443 0.8125 3.625V5.4375C0.8125 5.9182 1.01004 6.37922 1.36167 6.71913C1.71331 7.05904 2.19022 7.25 2.6875 7.25H3.625V23.5625C3.625 24.5239 4.02009 25.4459 4.72335 26.1258C5.42661 26.8056 6.38044 27.1875 7.375 27.1875H18.625C19.6196 27.1875 20.5734 26.8056 21.2766 26.1258C21.9799 25.4459 22.375 24.5239 22.375 23.5625V7.25H23.3125C23.8098 7.25 24.2867 7.05904 24.6383 6.71913C24.99 6.37922 25.1875 5.9182 25.1875 5.4375V3.625C25.1875 3.1443 24.99 2.68328 24.6383 2.34337C24.2867 2.00346 23.8098 1.8125 23.3125 1.8125H16.75C16.75 1.3318 16.5525 0.870779 16.2008 0.530869C15.8492 0.190959 15.3723 0 14.875 0L11.125 0C10.6277 0 10.1508 0.190959 9.79918 0.530869C9.44754 0.870779 9.25 1.3318 9.25 1.8125H2.6875ZM8.3125 9.0625C8.56114 9.0625 8.7996 9.15798 8.97541 9.32793C9.15123 9.49789 9.25 9.7284 9.25 9.96875V22.6562C9.25 22.8966 9.15123 23.1271 8.97541 23.2971C8.7996 23.467 8.56114 23.5625 8.3125 23.5625C8.06386 23.5625 7.8254 23.467 7.64959 23.2971C7.47377 23.1271 7.375 22.8966 7.375 22.6562C7.375 22.6562 7.375 10.2091 7.375 9.96875C7.375 9.7284 7.47377 9.49789 7.64959 9.32793C7.8254 9.15798 8.06386 9.0625 8.3125 9.0625ZM13 9.0625C13.2486 9.0625 13.4871 9.15798 13.6629 9.32793C13.8387 9.49789 13.9375 9.7284 13.9375 9.96875V22.6562C13.9375 22.8966 13.8387 23.1271 13.6629 23.2971C13.4871 23.467 13.2486 23.5625 13 23.5625C12.7514 23.5625 12.5129 23.467 12.3371 23.2971C12.1613 23.1271 12.0625 22.8966 12.0625 22.6562V9.96875C12.0625 9.7284 12.1613 9.49789 12.3371 9.32793C12.5129 9.15798 12.7514 9.0625 13 9.0625ZM18.625 9.96875V22.6562C18.625 22.8966 18.5262 23.1271 18.3504 23.2971C18.1746 23.467 17.9361 23.5625 17.6875 23.5625C17.4389 23.5625 17.2004 23.467 17.0246 23.2971C16.8488 23.1271 16.75 22.8966 16.75 22.6562V9.96875C16.75 9.7284 16.8488 9.49789 17.0246 9.32793C17.2004 9.15798 17.4389 9.0625 17.6875 9.0625C17.9361 9.0625 18.1746 9.15798 18.3504 9.32793C18.5262 9.49789 18.625 9.7284 18.625 9.96875Z" fill="#D35645"/>
</svg>
